<?xml version="1.0" encoding="UTF-8" standalone="no"?><!DOCTYPE svg PUBLIC "-//W3C//DTD SVG 1.1//EN" "http://www.w3.org/Graphics/SVG/1.1/DTD/svg11.dtd"><svg width="100%" height="100%" viewBox="0 0 254 216" version="1.1" xmlns="http://www.w3.org/2000/svg" xmlns:xlink="http://www.w3.org/1999/xlink" xml:space="preserve" xmlns:serif="http://www.serif.com/" style="fill-rule:evenodd;clip-rule:evenodd;stroke-linejoin:round;stroke-miterlimit:2;"><g id="Background"><path d="M42.738,0c25.652,2.094 20.713,27.011 28.845,22.981c66.6,-33.002 109.148,5.899 113.12,5.212c5.413,-0.936 -1.555,-14.629 19.017,-19.897c1.588,-0.407 30.147,-5.324 44.908,21.144c9.946,17.834 4.533,45.352 -25.954,50.735c-5.086,0.899 3.431,14.776 11.27,37.126c22.111,63.047 -68.933,101.723 -114.129,98.194c-52.377,-4.089 -50.808,-10.736 -75.308,-26.789c-19.044,-12.478 -35.698,-33.384 -37.37,-45.4c-5.153,-37.045 29.37,-69.834 17.539,-71.635c-29.552,-4.498 -38.588,-53.629 7.048,-69.33c5.381,-1.851 5.332,-1.869 11.014,-2.341Z" style="fill:#353130;"/><path d="M119.737,209.356c-3.179,-0.037 -18.855,0.525 -32.984,-4.03c-18.565,-5.984 -46.926,-23.462 -61.55,-42.319c-17.221,-22.204 -21.671,-35.584 12.092,-91.891c11.763,-19.617 21.827,-39.95 52.528,-50.471c22.764,-7.801 47.54,-5.015 50.917,-4.278c56.139,12.263 72.615,63.001 73.051,63.988c13.57,30.733 39.099,72.032 -11.221,102.745c-45.974,28.061 -71.341,26.17 -82.833,26.256Z" style="fill:#fafafa;"/><path d="M78.796,77.658c20.223,-1.937 28.209,0.571 27.823,34.715c-0.253,22.373 -29.245,38.112 -43.799,30.81c-2.788,-1.399 -24.167,-12.126 -12.985,-36.764c1.255,-2.765 9.067,-24.238 28.961,-28.761Z" style="fill:#353332;"/><path d="M139.105,104.399c0.535,-5.048 0.619,-4.972 1.838,-9.964c5.222,-21.39 35.865,-16.631 49.339,5.229c23.26,37.737 -9.51,61.518 -36.188,42.221c-18.385,-13.298 -15.062,-26.873 -14.989,-37.486Z" style="fill:#363231;"/><path d="M120.751,135.6c1.967,0.019 17.696,0.169 22.12,10.718c4.1,9.773 -11.679,13.579 -13.17,13.939c-3.191,0.77 -5.102,3.499 -8.009,3.892c-4.777,0.647 -7.131,-2.745 -8.107,-3.607c-3.731,-3.296 -15.021,-4.532 -14.346,-11.205c1.142,-11.3 19.485,-13.494 21.512,-13.737Z" style="fill:#363231;"/><path d="M158.82,109.943c19.111,4.546 14.014,27.043 -1.069,25.319c-5.639,-0.644 -13.532,-6.65 -14.12,-12.868c-1.315,-13.932 6.776,-13.294 15.189,-12.451Z" style="fill:#e5e5e5;"/><path d="M84.69,106.234c1.281,-0.26 12.883,-2.61 16.027,3.159c2.929,5.375 0.967,14.481 -5.186,18.628c-17.117,11.536 -31.944,-12.509 -10.841,-21.787Z" style="fill:#e5e5e5;"/><path d="M142.753,169.466l0.992,-0.162c0.354,0.701 0.708,1.401 1.062,2.101c-17.11,17.387 -43.621,6.625 -43.606,5.663c0.055,-3.345 6.977,-1.089 7.556,-0.901c16.712,5.445 31.728,-5.107 33.996,-6.701Z" style="fill:#9e9e9e;"/><path d="M152.531,118.111c0.736,-0.356 8.946,-4.324 9.282,4.266c0.4,10.24 -17.507,5.227 -9.282,-4.266Z" style="fill:#444241;"/><path d="M86.019,124.001c-0.319,-0.357 -2.803,-3.141 -2.129,-5.591c1.002,-3.643 3.284,-4.274 3.728,-4.396c9.854,-2.724 10.324,15.378 -1.599,9.987Z" style="fill:#444040;"/><path d="M143.745,169.304l0.992,0.374c0.023,0.576 0.047,1.152 0.07,1.727c-0.354,-0.7 -0.708,-1.4 -1.062,-2.101Z" style="fill:#e3e3e3;"/><path d="M142.753,169.466c0.662,0.071 1.323,0.142 1.984,0.212l-0.992,-0.374l-0.992,0.162Z" style="fill:#e4e4e4;"/></g></svg>