<?xml version="1.0" encoding="UTF-8" standalone="no"?>
<!DOCTYPE svg PUBLIC "-//W3C//DTD SVG 1.1//EN" "http://www.w3.org/Graphics/SVG/1.1/DTD/svg11.dtd">
<svg width="100%" height="100%" viewBox="0 0 370 414" version="1.1" xmlns="http://www.w3.org/2000/svg" xmlns:xlink="http://www.w3.org/1999/xlink" xml:space="preserve" xmlns:serif="http://www.serif.com/" style="fill-rule:evenodd;clip-rule:evenodd;stroke-linejoin:round;stroke-miterlimit:2;">
    <g id="Background">
        <path d="M105.501,6.12C131.153,8.214 126.214,33.131 134.346,29.101C200.946,-3.901 243.494,35 247.466,34.313C252.879,33.377 245.911,19.684 266.483,14.416C268.071,14.009 296.63,9.092 311.391,35.56C321.337,53.394 315.924,80.912 285.437,86.295C280.351,87.194 288.868,101.071 296.707,123.421C318.818,186.468 238.278,205.79 238.235,211.491C238.205,215.404 248.53,215.074 277.5,242.5C296.171,260.177 315.821,291.154 293.109,311.084C292.785,311.368 282.726,321.027 282.092,316.61C282.006,316.017 288.175,295.817 290.214,286.414C291.143,282.129 292.801,280.106 288.443,279.886C284.529,279.688 241.874,280.128 240.541,279.4C236.343,277.108 239.892,266.17 218.453,255.596C182.482,237.853 134.581,253.909 130.284,277.439C129.663,280.835 125.509,279.639 84.5,279.846C83.852,279.85 75.724,277.893 78.474,286.507C79.206,288.797 79.016,288.826 86.302,315.522C88.269,322.728 72.219,312.597 68.429,305.542C53.139,277.075 92,235.398 130.578,213.615C137.354,209.789 128.77,209.879 107.27,194.826C88.619,181.768 71.572,161.442 69.9,149.426C64.747,112.381 99.27,79.592 87.439,77.791C57.887,73.293 48.851,24.162 94.487,8.461C99.868,6.61 99.819,6.592 105.501,6.12Z" style="fill:rgb(53,49,48);"/>
        <path d="M182.5,215.476C179.321,215.439 163.645,216.001 149.516,211.446C130.951,205.462 102.59,187.984 87.966,169.127C70.745,146.923 66.295,133.543 100.058,77.236C111.821,57.619 121.885,37.286 152.586,26.765C175.35,18.964 200.126,21.75 203.503,22.487C259.642,34.75 276.118,85.488 276.554,86.475C290.124,117.208 315.653,158.507 265.333,189.22C219.359,217.281 193.992,215.39 182.5,215.476Z" style="fill:rgb(250,250,250);"/>
        <g transform="matrix(0.600734,0,0,0.180759,73.858862,244.530617)">
            <path d="M179.171,187.815C175.992,187.777 127.559,193.516 94.624,191.256C76.91,190.04 113.494,13.931 182.55,15.701C263.711,17.781 280.41,185.988 274.889,186.055C206.844,186.877 190.663,187.729 179.171,187.815Z" style="fill:rgb(250,250,250);"/>
        </g>
        <g transform="matrix(1.075458,0,0,1.102973,-13.401031,-35.356436)">
            <path d="M264.18,360.424C256.53,386.692 258.969,391.51 250.5,391.584C239.86,391.678 172.295,392.272 117.5,391.582C111.021,391.501 111.861,389.021 107.538,372.489C105.948,366.406 104.916,367.351 86.359,297.459C85.058,292.56 82.363,286.379 87.494,285.449C102.827,282.668 274.055,282.699 281.505,284.745C286.024,285.985 283.104,287.905 274.896,318.782C265.842,352.842 265.948,354.643 264.18,360.424Z" style="fill:white;"/>
        </g>
        <path d="M264.18,360.424C256.53,386.692 258.969,391.51 250.5,391.584C239.86,391.678 172.295,392.272 117.5,391.582C111.021,391.501 111.861,389.021 107.538,372.489C105.948,366.406 105.846,366.444 87.289,296.553C85.988,291.654 82.363,285.472 87.494,285.449C103.089,285.376 279.12,284.56 282.435,285.651C285.263,286.582 283.104,289.719 274.896,320.595C265.842,354.655 265.948,354.643 264.18,360.424Z" style="fill:rgb(94,94,94);"/>
        <path d="M70.503,405.93C67.32,405.787 57.896,408.272 38.713,391.262C25.486,379.533 2.819,351.64 9.574,337.53C19.672,316.438 31.963,313.739 44.52,310.634C61.529,306.428 77.618,322.062 79.785,324.168C82.869,327.164 88.49,323.677 89.66,328.446C90.626,332.381 103.052,379.051 104.51,385.498C105.475,389.765 107.036,390.632 104.541,391.565C94.856,395.184 95.267,395.918 86.319,401.206C77.494,406.423 75.43,405.648 70.503,405.93Z" style="fill:rgb(56,54,53);"/>
        <path d="M355.886,342.486C354.302,361.883 338.927,376.515 325.533,390.533C312.622,404.044 287.573,409.95 279.599,403.362C272.139,397.199 272.704,396.537 264.393,391.645C261.81,390.124 263.581,388.424 278.36,331.459C280.098,324.761 282.387,326.9 285.466,325.434C286.038,325.162 301.255,302.934 325.548,311.308C327.212,311.882 335.518,312.587 345.14,321.875C354.629,331.034 355.683,340.638 355.886,342.486Z" style="fill:rgb(59,55,54);"/>
        <path d="M83.875,383.491C83.009,398.568 66.867,407.293 43.735,387.222C22.951,369.187 14.904,348.543 16.829,342.56C24.527,318.629 56.23,319.889 63.332,332.607C69.235,343.179 66.155,344.459 78.34,368.582C82.675,377.164 83.384,378.349 83.875,383.491Z" style="fill:rgb(237,237,237);"/>
        <path d="M279.922,383.509C280.335,377.68 280.673,377.544 285.696,367.602C297.24,344.752 294.299,343.521 300.339,332.395C305.702,322.516 323.646,321.539 333.343,326.834C345.699,333.581 354.632,344.392 335.391,370.418C311.596,402.603 282.025,408.095 279.922,383.509Z" style="fill:rgb(237,237,237);"/>
        <path d="M141.559,83.778C161.782,81.841 169.768,84.349 169.382,118.493C169.129,140.866 140.137,156.605 125.583,149.303C122.795,147.904 101.416,137.177 112.598,112.539C113.853,109.774 121.665,88.301 141.559,83.778Z" style="fill:rgb(53,51,50);"/>
        <path d="M201.868,110.519C202.403,105.471 202.487,105.547 203.706,100.555C208.928,79.165 239.571,83.924 253.045,105.784C276.305,143.521 243.535,167.302 216.857,148.005C198.472,134.707 201.795,121.132 201.868,110.519Z" style="fill:rgb(54,50,49);"/>
        <path d="M183.514,141.72C185.481,141.739 201.21,141.889 205.634,152.438C209.734,162.211 193.955,166.017 192.464,166.377C189.273,167.147 187.362,169.876 184.455,170.269C179.678,170.916 177.324,167.524 176.348,166.662C172.617,163.366 161.327,162.13 162.002,155.457C163.144,144.157 181.487,141.963 183.514,141.72Z" style="fill:rgb(54,50,49);"/>
        <path d="M41.925,364.505C42.189,360.854 42.045,360.839 43.922,357.802C47.066,352.716 69.621,356.173 69.871,378.502C70.05,394.536 44.116,389.944 41.925,364.505Z" style="fill:rgb(55,51,50);"/>
        <path d="M313.517,355.752C314.019,355.762 318.494,355.844 319.545,357.464C320.661,359.186 321.527,362.54 321.576,363.495C322.632,384.066 294.8,397.372 293.715,379.487C292.462,358.827 311.07,356.11 313.517,355.752Z" style="fill:rgb(55,51,50);"/>
        <path d="M221.583,116.063C240.694,120.609 235.597,143.106 220.514,141.382C214.875,140.738 206.982,134.732 206.394,128.514C205.079,114.582 213.17,115.22 221.583,116.063Z" style="fill:rgb(229,229,229);"/>
        <path d="M147.453,112.354C148.734,112.094 160.336,109.744 163.48,115.513C166.409,120.888 164.447,129.994 158.294,134.141C141.177,145.677 126.35,121.632 147.453,112.354Z" style="fill:rgb(229,229,229);"/>
        <path d="M184.08,340.265C179.65,334.971 178.148,335.538 176.604,333.45C170.316,324.943 169.759,325.379 169.638,324.478C169.565,323.932 170.931,317.126 176.443,325.539C178.048,327.988 181.505,330.146 183.004,332.821C186.721,339.456 187.587,338.74 192.693,344.338C196.556,348.574 202.757,348.216 203.723,350.399C205.453,354.308 202.533,353.162 198.489,354.455C194.06,355.87 194.339,354.058 192.43,351.554C189.418,347.603 178.496,344.684 174.141,341.997C169.361,339.048 164.573,339.229 164.321,336.516C163.685,329.661 176.045,337.908 180.588,340.339C184.044,342.188 183.95,340.506 184.08,340.265Z" style="fill:rgb(224,224,224);"/>
        <path d="M205.516,175.586L206.508,175.424C206.862,176.125 207.216,176.825 207.57,177.525C190.46,194.912 163.949,184.15 163.964,183.188C164.019,179.843 170.941,182.099 171.52,182.287C188.232,187.732 203.248,177.18 205.516,175.586Z" style="fill:rgb(158,158,158);"/>
        <path d="M215.294,124.231C216.03,123.875 224.24,119.907 224.576,128.497C224.976,138.737 207.069,133.724 215.294,124.231Z" style="fill:rgb(68,66,65);"/>
        <path d="M148.782,130.121C148.463,129.764 145.979,126.98 146.653,124.53C147.655,120.887 149.937,120.256 150.381,120.134C160.235,117.41 160.705,135.512 148.782,130.121Z" style="fill:rgb(68,64,64);"/>
        <path d="M194.61,330.872C199.87,325.269 198.758,332.393 197.446,334.474C197.141,334.958 193.788,340.277 192.651,339.785C191.306,339.203 188.812,335.869 188.527,335.488C185.341,331.228 187.057,319.023 191.026,324.785C192.382,326.754 190.976,333.14 193.5,333.291C194.004,333.321 194.559,331.079 194.61,330.872Z" style="fill:rgb(213,213,213);"/>
        <path d="M49.621,341.41C49.222,340.766 44.879,333.77 50.64,331.992C57.03,330.021 58.615,351.038 49.621,341.41Z" style="fill:rgb(74,72,72);"/>
        <path d="M307.591,338.506C307.728,337.807 309.52,328.669 314.336,332.684C319.676,337.137 308.474,351.579 307.591,338.506Z" style="fill:rgb(71,69,69);"/>
        <path d="M42.476,343.5C41.306,355.729 27.604,336.906 36.469,336.163C41.378,335.751 42.37,342.749 42.476,343.5Z" style="fill:rgb(72,70,69);"/>
        <path d="M323.24,338.265C330.067,332.397 332.559,340.201 327.33,345.304C321.845,350.657 318.813,344.018 323.24,338.265Z" style="fill:rgb(72,70,69);"/>
        <path d="M335.354,354.116C324.082,356.329 336.383,341 339.568,346.452C341.96,350.546 335.969,353.784 335.354,354.116Z" style="fill:rgb(76,72,72);"/>
        <path d="M31.874,349.305C35.817,360.345 19.659,351.439 24.255,346.283C26.967,343.239 31.462,348.795 31.874,349.305Z" style="fill:rgb(72,70,69);"/>
        <path d="M206.508,175.424L207.5,175.798C207.523,176.374 207.547,176.95 207.57,177.525C207.216,176.825 206.862,176.125 206.508,175.424Z" style="fill:rgb(227,227,227);"/>
        <path d="M205.516,175.586C206.178,175.657 206.839,175.728 207.5,175.798L206.508,175.424L205.516,175.586Z" style="fill:rgb(228,228,228);"/>
    </g>
</svg>
